<!-- <svg xmlns="http://www.w3.org/2000/svg" width="16" height="16" fill="none" viewBox="0 0 16 16" id="next"><path fill="#212121" d="M2 2.96495C2 2.15413 2.91427 1.68039 3.57668 2.14798L10.7097 7.18302C11.2741 7.58143 11.2741 8.41854 10.7097 8.81695L3.57668 13.852C2.91427 14.3196 2 13.8458 2 13.035V2.96495zM14 2.75C14 2.33579 13.6642 2 13.25 2 12.8358 2 12.5 2.33579 12.5 2.75V13.25C12.5 13.6642 12.8358 14 13.25 14 13.6642 14 14 13.6642 14 13.25V2.75z"></path></svg> -->

<!-- <svg xmlns="http://www.w3.org/2000/svg" width="23" height="23" fill="none" viewBox="0 0 16 16" id="next">
  <g transform="scale(1)">
    <path fill="#212121" d="M2 2.96495C2 2.15413 2.91427 1.68039 3.57668 2.14798L10.7097 7.18302C11.2741 7.58143 11.2741 8.41854 10.7097 8.81695L3.57668 13.852C2.91427 14.3196 2 13.8458 2 13.035V2.96495zM14 2.75C14 2.33579 13.6642 2 13.25 2 12.8358 2 12.5 2.33579 12.5 2.75V13.25C12.5 13.6642 12.8358 14 13.25 14 13.6642 14 14 13.6642 14 13.25V2.75z"></path>
  </g>
</svg> -->

<svg xmlns="http://www.w3.org/2000/svg" viewBox="0 0 24 24" width="24" height="24" color="#000000" fill="none">
    <path d="M15.9351 12.6258C15.6807 13.8374 14.327 14.7077 11.6198 16.4481C8.67528 18.3411 7.20303 19.2876 6.01052 18.9229C5.60662 18.7994 5.23463 18.5823 4.92227 18.2876C4 17.4178 4 15.6118 4 12C4 8.38816 4 6.58224 4.92227 5.71235C5.23463 5.41773 5.60662 5.20057 6.01052 5.07707C7.20304 4.71243 8.67528 5.6589 11.6198 7.55186C14.327 9.29233 15.6807 10.1626 15.9351 11.3742C16.0216 11.7865 16.0216 12.2135 15.9351 12.6258Z" stroke="currentColor" stroke-width="1.5" stroke-linejoin="round" />
    <path d="M20 5V19" stroke="currentColor" stroke-width="1.5" stroke-linecap="round" />
</svg>
