<!-- <svg xmlns="http://www.w3.org/2000/svg" width="16" height="16" fill="none" viewBox="0 0 16 16" id="previous"><path fill="#212121" d="M13.75 13.0351C13.75 13.8459 12.8357 14.3196 12.1733 13.852L5.04034 8.81698C4.47592 8.41857 4.47592 7.58146 5.04034 7.18305L12.1733 2.14801C12.8357 1.68042 13.75 2.15416 13.75 2.96498L13.75 13.0351zM1.75 13.25C1.75 13.6642 2.08579 14 2.5 14 2.91421 14 3.25 13.6642 3.25 13.25L3.25 2.75C3.25 2.33579 2.91421 2 2.5 2 2.08579 2 1.75 2.33579 1.75 2.75V13.25z"></path></svg> -->

<!-- <svg xmlns="http://www.w3.org/2000/svg" width="24" height="24" fill="none" viewBox="0 0 16 16" id="previous">
  <g transform="scale(0.9)">
    <path fill="#212121" d="M13.75 13.0351C13.75 13.8459 12.8357 14.3196 12.1733 13.852L5.04034 8.81698C4.47592 8.41857 4.47592 7.58146 5.04034 7.18305L12.1733 2.14801C12.8357 1.68042 13.75 2.15416 13.75 2.96498L13.75 13.0351zM1.75 13.25C1.75 13.6642 2.08579 14 2.5 14 2.91421 14 3.25 13.6642 3.25 13.25L3.25 2.75C3.25 2.33579 2.91421 2 2.5 2 2.08579 2 1.75 2.33579 1.75 2.75V13.25z"></path>
  </g>
</svg> -->


<svg xmlns="http://www.w3.org/2000/svg" viewBox="0 0 24 24" width="24" height="24" color="#000000" fill="none">
    <path d="M8.06492 12.6258C8.31931 13.8374 9.67295 14.7077 12.3802 16.4481C15.3247 18.3411 16.797 19.2876 17.9895 18.9229C18.3934 18.7994 18.7654 18.5823 19.0777 18.2876C20 17.4178 20 15.6118 20 12C20 8.38816 20 6.58224 19.0777 5.71235C18.7654 5.41773 18.3934 5.20057 17.9895 5.07707C16.797 4.71243 15.3247 5.6589 12.3802 7.55186C9.67295 9.29233 8.31931 10.1626 8.06492 11.3742C7.97836 11.7865 7.97836 12.2135 8.06492 12.6258Z" stroke="currentColor" stroke-width="1.5" stroke-linejoin="round" />
    <path d="M4 4L4 20" stroke="currentColor" stroke-width="1.5" stroke-linecap="round" />
</svg>